# xmcd
#
# Track frame offsets: 
#        150
#        15701
#        29521
#        60524
#        80786
#        94043
#        127599
#        151619
#        166655
#        182349
#        195478
#        218605
#        227648
#        252237
#        273432
#        291826
#        305263
#        317766
#
# Disc length: 4446 seconds
#
# Revision: 2
# Processed by: cddbd v1.5.2PL0 Copyright (c) Steve Scherf et al.
# Submitted via: ExactAudioCopy v1.3
#
DISCID=dd115c12
DTITLE=div - De Zwarte Lijst vol1 [CD3)
DYEAR=2012
DGENRE=Soul
TTITLE0=Rufus Featuring Chaka Khan -  - Once You Get Started (Album Ve
TTITLE0=rsion)
TTITLE1=Alain Clark - Blow Me Away
TTITLE2=The Temptations - Papa Was A Rollin' Stone (Album Version)
TTITLE3=The Roots, Cody Chestnutt - The Seed (2.0) (Album Version Edit
TTITLE3=ed)
TTITLE4=Billie Holiday - God Bless The Child
TTITLE5=James Brown - Cold Sweat (1967 Album Version)
TTITLE6=Maxwell - Ascension (Don't Ever Wonder)
TTITLE7=Miles Davis - Summertime
TTITLE8=Gare Du Nord - Love Will Find A Way
TTITLE9=Nina Simone - Ain't Got No.... I Got Life
TTITLE10=Kurt Elling - Undun (Album Version)
TTITLE11=Bill Withers - Grandma's Hands
TTITLE12=Christian Scott - The Eraser (Album Version)
TTITLE13=Gladys Knight and The Pips - Midnight Train To Georgia (Single 
TTITLE13=Version)
TTITLE14=Aloe Blacc - I Need A Dollar
TTITLE15=Kris Berry - Flower Empty Tree
TTITLE16=Etta James - Something's Got A Hold On Me (Single Version)
TTITLE17=Jazzanova, Paul Randolph - Let Me Show Ya (Radio Edit)
EXTD=
EXTT0=
EXTT1=
EXTT2=
EXTT3=
EXTT4=
EXTT5=
EXTT6=
EXTT7=
EXTT8=
EXTT9=
EXTT10=
EXTT11=
EXTT12=
EXTT13=
EXTT14=
EXTT15=
EXTT16=
EXTT17=
PLAYORDER=
